Music_MeetCuteTrainer:
	dbw $80, Music_MeetCuteTrainer_Ch1
	dbw $01, Music_MeetCuteTrainer_Ch2
	dbw $02, Music_MeetCuteTrainer_Ch3

Music_MeetCuteTrainer_Ch1:
	tempo 112
	volume 119
	dutycycle 1
	
	notetype 12, 178
	note __, 4
	tempo 152
	note __, 12
	notetype 12, 129

Music_MeetCuteTrainer_branch_1:
	note __, 11
	octave 4
	note G#, 1
	note A#, 2
	note G#, 1
	note F#, 2
	note F_, 4
	note __, 3
	note __, 5
	note F#, 3
	note F_, 1
	note F#, 2
	note F_, 1
	note G#, 1
	note __, 2
	note F#, 1
	note __, 2
	note F_, 1
	note __, 2
	note D#, 1
	note __, 2
	note __, 11
	note G#, 1
	note A#, 2
	note G#, 1
	note A#, 2
	note F_, 4
	note __, 3
	note __, 5
	note F#, 3
	note F_, 1
	note F#, 2
	note F_, 1
	note D#, 1
	note __, 2
	note G#, 1
	note __, 2
	note F_, 1
	note __, 5
	loopchannel 0, Music_MeetCuteTrainer_branch_1


Music_MeetCuteTrainer_Ch2:
	dutycycle 3
	notetype 12, 194
	octave 3
	note G#, 1
	note F#, 1
	note F_, 1
	note D#, 1
	notetype 12, 199
	octave 4
	note D#, 12

Music_MeetCuteTrainer_branch_2:
	notetype 12, 194
	octave 3
	note G#, 2
	note F#, 1
	note F_, 2
	note G#, 1
	note __, 2
	octave 4
	note D#, 1
	note C#, 2
	note C_, 1
	note C#, 2
	note C_, 1
	octave 3
	note A#, 2
	note G#, 4
	note __, 3
	note A#, 2
	note G#, 1
	note F#, 2
	note F#, 1
	note __, 2
	note F_, 1
	note F#, 2
	note F_, 1
	note G#, 1
	note __, 2
	note A#, 1
	note __, 2
	note G#, 1
	note __, 2
	note F#, 1
	note __, 2
	note G#, 2
	note F#, 1
	note F_, 2
	note G#, 1
	note __, 2
	octave 4
	note D#, 1
	note C#, 2
	note C_, 1
	note C#, 2
	note C_, 1
	note C#, 2
	octave 3
	note G#, 4
	note __, 3
	note A#, 2
	note G#, 1
	note F#, 2
	note A#, 1
	note __, 2
	note A#, 1
	octave 4
	note C_, 2
	octave 3
	note A#, 1
	note G#, 1
	note __, 2
	note G#, 1
	note __, 2
	octave 4
	note C#, 1
	note __, 5
	loopchannel 0, Music_MeetCuteTrainer_branch_2


Music_MeetCuteTrainer_Ch3:
	notetype 12, 16
	note __, 4
	octave 2
	note G#, 1
	note __, 4
	note G#, 1
	note G#, 1
	note __, 1
	note G#, 1
	note A#, 2
	octave 3
	note C_, 1

Music_MeetCuteTrainer_branch_3:
	octave 3
	note C#, 3
	note __, 3
	note C#, 1
	note __, 1
	note C#, 1
	note G#, 1
	note __, 1
	note C#, 1
	note F#, 3
	note __, 3
	note C#, 1
	note __, 1
	note G#, 1
	octave 4
	note C#, 1
	note __, 1
	octave 3
	note C#, 1
	note D#, 3
	note __, 3
	note D#, 3
	note __, 3
	note G#, 1
	note __, 2
	note A#, 1
	note __, 2
	note G#, 1
	note __, 1
	octave 2
	note G#, 1
	note A#, 1
	note __, 1
	octave 3
	note C_, 1
	note C#, 3
	note __, 3
	note C#, 1
	note __, 1
	note C#, 1
	note G#, 1
	note __, 1
	note C#, 1
	note F#, 3
	note __, 3
	note C#, 1
	note __, 1
	note G#, 1
	octave 4
	note C#, 1
	note __, 1
	octave 3
	note C#, 1
	note D#, 3
	note __, 3
	note D#, 1
	note __, 1
	note D#, 1
	note A#, 1
	note __, 1
	note D#, 1
	note G#, 1
	note __, 2
	note G#, 1
	note __, 2
	note D#, 1
	note __, 1
	octave 2
	note G#, 1
	note A#, 1
	note __, 1
	octave 3
	note C_, 1
	loopchannel 0, Music_MeetCuteTrainer_branch_3

