Music_WildBattle:
	dbw $80, Music_WildBattle_Ch1
	dbw $01, Music_WildBattle_Ch2
	dbw $02, Music_WildBattle_Ch3

Music_WildBattle_Ch1: 
	ftempo 104
	volume 119
	dutycycle 3
	vibrato $6, $34
	notetype $c, $b3
	octave 3
	note B_, 1
	note A#, 1
	note A_, 1
	note G#, 1
	note A_, 1
	note G#, 1
	note G_, 1
	note F#, 1
	note G_, 1
	note F#, 1
	note F_, 1
	note E_, 1
	note F_, 1
	note E_, 1
	note D#, 1
	note D_, 1
	note D#, 1
	note D_, 1
	note C#, 1
	note C_, 1
	note C#, 1
	note C_, 1
	octave 2
	note B_, 1
	note A#, 1
	note B_, 1
	note A#, 1
	note A_, 1
	note G#, 1
	note A_, 1
	note A#, 1
	note B_, 1
	octave 3
	note C_, 1
	intensity $b1
	note F#, 6
	note D#, 6
	note D_, 12
	note C_, 14
	note D#, 6
	note D_, 10
	intensity $4f
	note C_, 10
	intensity $b1
	note F#, 6
	note D#, 6
	note D_, 12
	note C_, 14
	note D#, 6
	note D_, 10
	note C_, 10
Music_WildBattle_branch_230e0:
	intensity $b3
	note C_, 1
	note C#, 1
	note C_, 1
	octave 2
	note B_, 1
	octave 3
	note C_, 1
	note C#, 1
	note C_, 1
	octave 2
	note B_, 1
	octave 3
	note C_, 1
	note C#, 1
	note D_, 1
	note C#, 1
	note C_, 1
	octave 2
	note B_, 1
	note A#, 1
	note B_, 1
	octave 3
	note C_, 1
	note C#, 1
	note D_, 1
	note C#, 1
	note C_, 1
	note C#, 1
	note D_, 1
	note C#, 1
	note C_, 1
	note C#, 1
	note D_, 1
	note D#, 1
	note E_, 1
	note D#, 1
	note D_, 1
	note C#, 1
	note C_, 1
	note C#, 1
	note D_, 1
	note D#, 1
	note E_, 1
	note F_, 1
	note F#, 1
	note G_, 1
	note G#, 1
	note G_, 1
	note F#, 1
	note F_, 1
	note E_, 1
	note D#, 1
	note D_, 1
	note C#, 1
	note C_, 1
	note C#, 1
	note D_, 1
	note D#, 1
	note E_, 1
	note F_, 1
	note F#, 1
	note G_, 1
	note E_, 1
	note D#, 1
	note D_, 1
	note D#, 1
	note E_, 1
	note F_, 1
	note F#, 1
	note G_, 1
	note G#, 1
	note C#, 1
	note D_, 1
	note D#, 1
	note D_, 1
	note C#, 1
	note C_, 1
	note C#, 1
	note D_, 1
	note D#, 1
	note D_, 1
	note C#, 1
	note C_, 1
	note C#, 1
	note D_, 1
	note D#, 1
	note D_, 1
	note C#, 1
	note C_, 1
	note C#, 1
	note D_, 1
	note D#, 1
	note D_, 1
	note C#, 1
	note C_, 1
	note C#, 1
	note D_, 1
	note D#, 1
	note E_, 1
	note F_, 1
	note E_, 1
	note D#, 1
	note D_, 1
	note C#, 1
	note D_, 1
	note D#, 1
	note D_, 1
	note C#, 1
	note C_, 1
	note C#, 1
	note D_, 1
	note D#, 1
	note D_, 1
	note C#, 1
	note C_, 1
	note C#, 1
	note D_, 1
	note D#, 1
	note D_, 1
	note C#, 1
	note C_, 1
	note C#, 1
	note D_, 1
	note D#, 1
	note D_, 1
	note C#, 1
	note C_, 1
	note C#, 1
	note D_, 1
	note D#, 1
	note E_, 1
	note F_, 1
	note E_, 1
	note D#, 1
	note C_, 1
	note C#, 1
	note D_, 1
	note D#, 1
	note E_, 1
	note F_, 1
	note F#, 1
	note G_, 1
	note G#, 1
	note G_, 1
	note F#, 1
	note F_, 1
	note E_, 1
	note D#, 1
	note D_, 1
	note C#, 1
	note C_, 1
	note C#, 1
	note D_, 1
	note D#, 1
	note E_, 1
	note F_, 1
	note F#, 1
	note G_, 1
	note G#, 1
	note G_, 1
	note F#, 1
	note F_, 1
	note E_, 1
	note D#, 1
	note D_, 1
	note C#, 1
	note C_, 1
	note C#, 1
	note D_, 1
	note D#, 1
	note E_, 1
	note F_, 1
	note F#, 1
	note G_, 1
	note G#, 1
	note G_, 1
	note F#, 1
	note F_, 1
	note E_, 1
	note D#, 1
	note D_, 1
	note C#, 1
	note C_, 1
	note C#, 1
	note D_, 1
	note D#, 1
	note E_, 1
	note F_, 1
	note F#, 1
	note F_, 1
	note E_, 1
	note D#, 1
	note D_, 1
	note D#, 1
	note E_, 1
	note F_, 1
	note F#, 1
	note G_, 1
	intensity $b5
	note C#, 4
	octave 2
	note B_, 4
	octave 3
	note C#, 4
	note E_, 4
	note D#, 6
	note C#, 6
	note E_, 4
	intensity $b7
	note G#, 16
	note F#, 16
	intensity $b5
	note C#, 4
	octave 2
	note B_, 4
	octave 3
	note C#, 4
	note E_, 4
	note F#, 6
	note G#, 6
	note A#, 4
	intensity $b7
	note B_, 16
	intensity $3f
	octave 4
	note F#, 16
	intensity $b5
	octave 2
	note B_, 12
	note B_, 2
	note __, 2
	octave 3
	note C#, 2
	octave 2
	note B_, 2
	note __, 12
	octave 3
	note C_, 12
	note C_, 2
	note __, 2
	note E_, 2
	intensity $a3
	note D_, 6
	intensity $a7
	note C_, 8
	loopchannel 0, Music_WildBattle_branch_230e0
Music_WildBattle_Ch2: 
	dutycycle 3
	vibrato $8, $25
	notetype $c, $c3
	octave 4
	note F#, 1
	note F_, 1
	note E_, 1
	octave 5
	note F#, 1
	octave 4
	note F#, 1
	note F_, 1
	note E_, 1
	octave 5
	note F#, 1
	octave 4
	note F#, 1
	note F_, 1
	note E_, 1
	octave 5
	note F#, 1
	octave 4
	note F#, 1
	note F_, 1
	note E_, 1
	octave 5
	note F#, 1
	octave 4
	note F#, 1
	note F_, 1
	note E_, 1
	octave 5
	note F#, 1
	octave 4
	note F#, 1
	note F_, 1
	note E_, 1
	octave 5
	note F#, 1
	octave 4
	note F#, 1
	note F_, 1
	note E_, 1
	octave 5
	note F#, 1
	octave 4
	note F#, 1
	note F_, 1
	note E_, 1
	octave 5
	note F#, 1
	intensity $c2
	octave 4
	note F#, 6
	octave 3
	note F#, 6
	note F#, 12
	note F#, 14
	note F#, 6
	note F#, 10
	intensity $90
	note F_, 10
	intensity $c2
	note F#, 6
	note F#, 6
	note F#, 12
	note F#, 14
	note F#, 6
	note F#, 10
	note F#, 10
Music_WildBattle_branch_23225:
	intensity $c5
	note F#, 6
	note F_, 6
	note D#, 4
	note F#, 6
	note G#, 6
	note F#, 4
	octave 4
	note G_, 12
	note F#, 2
	note __, 2
	note G_, 2
	note F#, 2
	note __, 4
	intensity $b7
	octave 5
	note C_, 8
	intensity $c5
	octave 3
	note B_, 6
	note A_, 6
	note G_, 4
	octave 4
	note C_, 6
	octave 3
	note B_, 6
	note A_, 4
	octave 4
	note E_, 6
	note D#, 6
	note C#, 4
	intensity $c7
	octave 3
	note A_, 4
	note B_, 4
	octave 4
	note C#, 4
	note E_, 4
	intensity $c0
	note G_, 16
	intensity $b0
	note G_, 16
	intensity $4e
	note F#, 16
	intensity $c7
	note F#, 16
	octave 3
	note E_, 8
	note A_, 8
	octave 4
	note C#, 8
	note E_, 8
	intensity $c0
	note D#, 16
	intensity $c7
	note D#, 16
	octave 3
	note E_, 8
	note A_, 8
	octave 4
	note C#, 8
	note E_, 8
	intensity $c0
	note F#, 16
	intensity $3f
	note B_, 16
	intensity $c5
	note D#, 12
	note D#, 2
	note __, 2
	note E_, 2
	intensity $c1
	note D#, 4
	intensity $c5
	note __, 10
	note E_, 12
	note E_, 2
	note __, 2
	note G_, 2
	intensity $a3
	note F#, 6
	intensity $c7
	note E_, 8
	loopchannel 0, Music_WildBattle_branch_23225
Music_WildBattle_Ch3: 
	vibrato $0, $20
	notetype $c, $11
	octave 4
	note C_, 1
	note __, 1
	note C_, 1
	octave 3
	note B_, 1
	octave 4
	note C#, 1
	note __, 1
	note C#, 1
	octave 3
	note B_, 1
	octave 4
	note D_, 1
	note __, 1
	note D_, 1
	octave 3
	note B_, 1
	octave 4
	note D#, 1
	note __, 1
	note D#, 1
	octave 3
	note B_, 1
	octave 4
	note E_, 1
	note __, 1
	note E_, 1
	octave 3
	note B_, 1
	octave 4
	note F_, 1
	note __, 1
	note F_, 1
	octave 3
	note B_, 1
	octave 4
	note F#, 1
	note __, 1
	note F#, 1
	octave 3
	note B_, 1
	note A_, 2
	note A#, 2
Music_WildBattle_branch_232b5:
	note B_, 2
	octave 4
	note F#, 2
	octave 3
	note B_, 2
	octave 4
	note F#, 2
	octave 3
	note B_, 2
	octave 4
	note F#, 2
	octave 3
	note B_, 2
	octave 4
	note F#, 2
	octave 3
	note B_, 2
	octave 4
	note F#, 2
	octave 3
	note B_, 2
	octave 4
	note F#, 2
	octave 3
	note B_, 2
	octave 4
	note F#, 2
	octave 3
	note B_, 2
	octave 4
	note F#, 2
	note C_, 2
	note G_, 2
	note C_, 4
	note G_, 2
	note A_, 2
	note G_, 2
	note F#, 2
	note C_, 2
	note G_, 2
	note C_, 4
	note G_, 2
	note A_, 2
	note G_, 2
	note E_, 2
	loopchannel 2, Music_WildBattle_branch_232b5
Music_WildBattle_branch_232d8:
	octave 3
	note B_, 2
	octave 4
	note F#, 2
	octave 3
	note B_, 2
	octave 4
	note F#, 2
	octave 3
	note B_, 2
	octave 4
	note F#, 2
	octave 3
	note B_, 2
	octave 4
	note F#, 2
	octave 3
	note B_, 2
	octave 4
	note F#, 2
	octave 3
	note B_, 2
	octave 4
	note F#, 2
	octave 3
	note B_, 2
	octave 4
	note F#, 2
	octave 3
	note B_, 2
	octave 4
	note F#, 2
	note G_, 12
	note F#, 2
	note __, 2
	note G_, 2
	note F#, 2
	note __, 4
	note E_, 2
	note D#, 2
	note C#, 2
	note C_, 2
	octave 3
	note B_, 2
	octave 4
	note F#, 2
	octave 3
	note B_, 2
	octave 4
	note F#, 2
	octave 3
	note B_, 2
	octave 4
	note F#, 2
	octave 3
	note B_, 2
	octave 4
	note F#, 2
	octave 3
	note B_, 2
	octave 4
	note F#, 2
	octave 3
	note B_, 2
	octave 4
	note F#, 2
	octave 3
	note B_, 2
	octave 4
	note F#, 2
	octave 3
	note B_, 2
	octave 4
	note F#, 2
	octave 3
	note B_, 2
	octave 4
	note F#, 2
	octave 3
	note B_, 2
	octave 4
	note F#, 2
	octave 3
	note B_, 2
	octave 4
	note F#, 2
	octave 3
	note B_, 2
	octave 4
	note F#, 2
	octave 3
	note B_, 2
	octave 4
	note F#, 2
	octave 3
	note B_, 2
	octave 4
	note F#, 2
	octave 3
	note B_, 2
	octave 4
	note F#, 2
	octave 3
	note B_, 2
	octave 4
	note F#, 2
	note C_, 2
	note G_, 2
	note C_, 2
	note G_, 2
	note C_, 2
	note G_, 2
	note C_, 2
	note G_, 2
	note C_, 2
	note G_, 2
	note C_, 2
	note G_, 2
	note C_, 2
	note G_, 2
	note C_, 2
	note G_, 2
	octave 3
	note B_, 2
	octave 4
	note F#, 2
	octave 3
	note B_, 2
	octave 4
	note F#, 2
	octave 3
	note B_, 2
	octave 4
	note F#, 2
	octave 3
	note B_, 2
	octave 4
	note F#, 2
	octave 3
	note B_, 2
	octave 4
	note F#, 2
	octave 3
	note B_, 2
	octave 4
	note F#, 2
	octave 3
	note B_, 2
	octave 4
	note F#, 2
	octave 3
	note B_, 2
	octave 4
	note F#, 2
	octave 3
	note A_, 2
	octave 4
	note E_, 2
	octave 3
	note A_, 2
	octave 4
	note E_, 2
	octave 3
	note A_, 2
	octave 4
	note E_, 2
	octave 3
	note A_, 2
	octave 4
	note E_, 2
	octave 3
	note A_, 2
	octave 4
	note E_, 2
	octave 3
	note A_, 2
	octave 4
	note E_, 2
	octave 3
	note A_, 2
	octave 4
	note E_, 2
	octave 3
	note A_, 2
	octave 4
	note E_, 2
	octave 3
	note B_, 2
	octave 4
	note F#, 2
	octave 3
	note B_, 2
	octave 4
	note F#, 2
	octave 3
	note B_, 2
	octave 4
	note F#, 2
	octave 3
	note B_, 2
	octave 4
	note F#, 2
	octave 3
	note B_, 2
	octave 4
	note F#, 2
	octave 3
	note B_, 2
	octave 4
	note F#, 2
	octave 3
	note B_, 2
	octave 4
	note F#, 2
	octave 3
	note B_, 2
	octave 4
	note F#, 2
	octave 3
	note B_, 2
	octave 4
	note E_, 2
	octave 3
	note B_, 2
	octave 4
	note E_, 2
	octave 3
	note B_, 2
	octave 4
	note E_, 2
	octave 3
	note B_, 2
	octave 4
	note E_, 2
	octave 3
	note B_, 2
	octave 4
	note E_, 2
	octave 3
	note B_, 2
	octave 4
	note E_, 2
	octave 3
	note B_, 2
	octave 4
	note E_, 2
	octave 3
	note B_, 2
	octave 4
	note E_, 2
	octave 3
	note B_, 2
	octave 4
	note F#, 2
	octave 3
	note B_, 2
	octave 4
	note F#, 2
	octave 3
	note B_, 2
	octave 4
	note F#, 2
	octave 3
	note B_, 2
	octave 4
	note F#, 2
	octave 3
	note B_, 2
	octave 4
	note F#, 2
	octave 3
	note B_, 2
	octave 4
	note F#, 2
	octave 3
	note B_, 2
	octave 4
	note F#, 2
	octave 3
	note B_, 2
	octave 4
	note F#, 2
	octave 3
	note B_, 2
	octave 4
	note F#, 2
	octave 3
	note B_, 2
	octave 4
	note F#, 2
	octave 3
	note B_, 2
	octave 4
	note F#, 2
	octave 3
	note B_, 2
	octave 4
	note F#, 2
	octave 3
	note B_, 2
	octave 4
	note F#, 2
	octave 3
	note B_, 2
	octave 4
	note F#, 2
	octave 3
	note B_, 2
	octave 4
	note F#, 2
	octave 3
	note B_, 2
	octave 4
	note F#, 2
	note C_, 2
	note G_, 2
	note C_, 2
	note G_, 2
	note C_, 2
	note G_, 2
	note C_, 2
	note G_, 2
	note C_, 2
	note G_, 2
	note C_, 2
	note G_, 2
	note C_, 2
	note G_, 2
	note C_, 2
	note G_, 2
	loopchannel 0, Music_WildBattle_branch_232d8
